<?xml version="1.0" standalone="no"?>
<!DOCTYPE svg PUBLIC "-//W3C//DTD SVG 20010904//EN"
 "http://www.w3.org/TR/2001/REC-SVG-20010904/DTD/svg10.dtd">
<svg version="1.0" xmlns="http://www.w3.org/2000/svg"
 width="260.000000pt" height="260.000000pt" viewBox="0 0 260.000000 260.000000"
 preserveAspectRatio="xMidYMid meet">
<metadata>
Created by potrace 1.14, written by Peter Selinger 2001-2017
</metadata>
<g transform="translate(0.000000,260.000000) scale(0.100000,-0.100000)"
fill="#000000" stroke="none">
<path d="M50 1985 l0 -225 225 0 225 0 0 225 0 225 -225 0 -225 0 0 -225z"/>
<path d="M1010 1296 l0 -916 225 0 225 0 0 309 0 309 303 4 c297 4 303 4 375
30 107 38 175 83 251 165 110 116 161 246 161 408 0 106 -20 187 -68 279 -71
136 -188 236 -342 290 l-85 31 -522 3 -523 4 0 -916z m960 503 c140 -63 167
-263 48 -352 -58 -43 -89 -47 -329 -47 l-229 0 0 203 c0 112 3 207 8 211 4 4
111 6 237 4 181 -3 237 -7 265 -19z"/>
</g>
</svg>
