<?xml version="1.0" encoding="UTF-8"?>
<svg width="60px" height="58px" viewBox="0 0 60 58" version="1.1" xmlns="http://www.w3.org/2000/svg" xmlns:xlink="http://www.w3.org/1999/xlink">
    <title>global-network</title>
    <g id="Page-1" stroke="none" stroke-width="1" fill="none" fill-rule="evenodd">
        <g id="Home-07" transform="translate(-1236.000000, -3260.000000)" fill="#236192" fill-rule="nonzero">
            <g id="ADVANTAGES" transform="translate(0.000000, 2942.000000)">
                <g id="adv-5" transform="translate(1203.000000, 284.000000)">
                    <g id="global-network" transform="translate(33.000000, 34.000000)">
                        <path d="M57.676265,40.3519507 C57.6938513,40.3160573 57.7094444,40.27934 57.721872,40.2416814 C61.2767591,32.0060797 60.6415433,21.9095506 56.024446,14.1925797 C58.4893365,11.2348429 55.2875816,6.99918218 51.7862741,8.63804114 C51.1709894,8.00690509 50.5249874,7.40201244 49.855537,6.83007115 C51.1695825,3.24449348 46.7840377,0.303114721 44.0527739,2.98205951 C36.1142179,-1.04165343 26.2404697,-0.990696518 18.3457621,3.1182192 C15.5373533,0.130826232 10.820835,3.33393286 12.5211921,7.08214898 C11.5473821,7.93688347 10.6256275,8.86022739 9.77574207,9.83664651 C9.04192597,10.6797303 10.3713302,11.8352636 11.1001049,10.9980639 C11.8907832,10.0897835 12.7474687,9.23057703 13.6523405,8.43433118 C15.4021735,9.70119292 17.9394022,9.05581719 18.8993776,7.12204365 C22.0673669,8.03738509 25.092673,9.35108482 27.9117508,11.0371348 C27.6757431,11.8913986 27.7721159,12.8454579 28.1770689,13.6340543 C25.8568547,15.6458519 23.7673722,17.9216134 21.952939,20.4156776 C20.2779061,19.9076384 18.4315831,20.7580186 17.7031601,22.3502749 C14.0092243,22.3701634 10.3037989,22.7689924 6.66578747,23.5408778 C6.34454508,22.9399864 5.85752286,22.4420679 5.26709342,22.1085532 C5.95061281,19.4330212 7.03322311,16.8878825 8.49147597,14.5345676 C9.07252607,13.596631 7.6058318,12.621624 6.99816783,13.6021621 C5.44776295,16.1041111 4.29621451,18.80977 3.56790877,21.6539423 C-0.644587225,21.7257291 -1.35178945,27.5752999 2.65846453,28.7005885 C2.59937469,37.0257472 6.18533079,45.1197757 12.4035986,50.6334781 C11.1064359,54.1506818 15.3176422,57.0518128 18.0967406,54.5710468 C26.2072903,58.9000305 36.457619,58.9006189 44.5686376,54.572459 C47.3952189,57.3785019 51.9223918,54.2436516 50.3302488,50.5753425 C53.535052,47.7164598 56.0246805,44.2197331 57.676265,40.3519507 Z M56.5683305,38.3779294 C54.1342746,35.9505917 51.4705421,33.7486178 48.626609,31.815668 C49.0305068,30.5457465 48.679485,29.1169524 47.7362752,28.1794865 C50.1277723,24.1882542 52.0051644,19.9085798 53.3267134,15.4379054 C53.7670734,15.4394352 54.1904334,15.3578806 54.5804967,15.2103057 C58.6299094,22.0751311 59.3705255,30.9260992 56.5683305,38.3779294 Z M16.1051551,48.3555984 C15.3651252,41.0798225 16.6636948,33.8212284 19.8776428,27.2616737 C21.8742697,27.8870432 24.0323386,26.5691069 24.4200571,24.5118835 C30.483214,25.2621151 36.3226738,27.0489021 41.8027875,29.831526 C41.5392281,30.8598435 41.757415,31.993723 42.3852445,32.8491636 C36.2081286,40.7044125 28.0543168,46.6152963 18.7223426,50.0030482 C18.1568856,49.1043001 17.2059378,48.4755177 16.1051551,48.3555984 Z M43.4490962,30.7259198 C43.4490962,29.7257286 44.2538435,28.9120656 45.2430121,28.9120656 C47.6227851,29.0115081 47.6220817,32.4406845 45.2430121,32.5397739 C44.2538435,32.5397739 43.4490962,31.7261109 43.4490962,30.7259198 Z M55.1283673,11.858918 C55.1283673,12.8591091 54.32362,13.6727721 53.3344514,13.6727721 C50.9545611,13.5733297 50.9551473,10.1441532 53.3344514,10.0450638 C54.32362,10.0450638 55.1283673,10.8587268 55.1283673,11.858918 L55.1283673,11.858918 Z M50.4425664,9.78392435 C49.2272385,11.497983 49.7912885,13.9758069 51.6235425,14.994592 C50.3433799,19.3069823 48.5284776,23.4350804 46.2196359,27.2855634 C45.7369516,27.1462263 45.2011568,27.1116274 44.7048725,27.1878862 C42.2915684,22.0151126 38.7800608,17.3559093 34.4904197,13.6342896 C34.8957245,12.8452225 34.9923317,11.8928108 34.7559723,11.0373702 C37.4711739,9.41357471 40.37959,8.13388547 43.4209581,7.22419284 C44.4318165,9.18315062 47.1435009,9.73626257 48.8269751,8.2698098 C49.3849286,8.75160561 49.9250613,9.25776189 50.4425664,9.78392435 L50.4425664,9.78392435 Z M29.5398869,11.9955484 C29.5398869,10.9953572 30.3446343,10.1816942 31.3338029,10.1816942 C33.7136932,10.2811367 33.7129897,13.7101954 31.3338029,13.8092849 C30.3446343,13.8092849 29.5398869,12.9956219 29.5398869,11.9955484 L29.5398869,11.9955484 Z M46.5479128,3.71310876 C47.5371987,3.71310876 48.341946,4.52677175 48.341946,5.52696292 C48.2432285,7.93323529 44.8523626,7.93264687 44.7539968,5.52696292 C44.7539968,4.52677175 45.5587442,3.71310876 46.5479128,3.71310876 Z M15.7203676,7.3406994 C14.731199,7.3406994 13.9264517,6.52703641 13.9264517,5.52684524 C14.0251692,3.12045519 17.416035,3.12127897 17.5144009,5.52684524 C17.5144009,6.52703641 16.7095363,7.3406994 15.7203676,7.3406994 Z M19.2696271,5.39150933 C19.2604822,5.14649251 19.2269511,4.90794826 19.171144,4.67775954 C26.5319327,0.856932776 35.7275547,0.790323974 43.1450883,4.50005762 C43.0497708,4.82003877 42.9975982,5.15837853 42.9958396,5.50872199 C39.7967812,6.45866235 36.7378268,7.80048842 33.8820523,9.50536775 C32.5093859,8.08010416 30.1588061,8.07963343 28.7856708,9.50525007 C25.8097235,7.72846618 22.6152376,6.34733386 19.2696271,5.39150933 Z M29.3412794,14.957051 C30.5303452,15.7716555 32.1369089,15.7717731 33.3260919,14.957051 C37.4215807,18.5066175 40.7765705,22.9497541 43.0875226,27.8836304 C42.9308876,28.0044913 42.7845699,28.1382973 42.6499764,28.2831655 C36.8724203,25.3416691 30.7069113,23.4714446 24.3026981,22.718977 C24.1297665,22.1936383 23.8394759,21.7219633 23.4626609,21.335844 C25.181425,18.9921792 27.1539001,16.851636 29.3412794,14.957051 Z M20.9305909,22.0292346 C21.9197595,22.0292346 22.7245069,22.8428976 22.7245069,23.8430888 C22.6257893,26.2494788 19.2349235,26.2487727 19.1365577,23.8430888 C19.1366749,22.8428976 19.9414223,22.0292346 20.9305909,22.0292346 L20.9305909,22.0292346 Z M1.74186855,25.2323412 C1.74186855,24.2321501 2.54661591,23.4184871 3.53578453,23.4184871 C5.91555753,23.5179295 5.91485408,26.9469883 3.53578453,27.0460777 C2.54673315,27.0461954 1.74186855,26.2325324 1.74186855,25.2323412 L1.74186855,25.2323412 Z M4.41697351,28.6998824 C4.41697351,28.6998824 7.08785776,28.1152313 7.08785776,25.2556425 C7.08785776,25.2556425 13.9413414,24.1560089 17.3895384,24.1174087 C17.4542559,24.9724963 17.818057,25.7441463 18.3760105,26.3264437 C14.9492687,33.246345 13.5671057,40.9183609 14.3627082,48.6063817 C14.0201278,48.7497201 13.7047475,48.9456629 13.4259466,49.1838541 C7.68919069,44.0253202 4.41697351,35.382181 4.41697351,28.6998824 Z M15.7203676,53.7270215 C14.731199,53.7270215 13.9264517,52.9133585 13.9264517,51.9131674 C13.9264517,50.9129762 14.731199,50.0993132 15.7203676,50.0993132 C16.696288,50.0993132 17.5144009,50.9478105 17.5144009,51.9131674 C17.5144009,52.9133585 16.7095363,53.7270215 15.7203676,53.7270215 Z M31.3338029,56.0662144 C27.0660861,56.0662144 22.8458521,55.0402505 19.0739506,53.0924727 C19.2270683,52.6519837 19.2945996,52.1501817 19.2648202,51.6827433 C28.9182712,48.1900178 37.3539322,42.0861332 43.7443109,33.9698625 C44.2693194,34.2169977 44.8518937,34.3304445 45.4307162,34.2999645 C45.8213657,35.755355 46.1300632,37.2401664 46.3488363,38.7248601 C46.5163748,39.8614463 48.256594,39.6074855 48.0885866,38.4666627 C47.8563307,36.890176 47.5274676,35.3134539 47.1099697,33.7692123 C47.3201842,33.6378777 47.5155089,33.4847716 47.6934819,33.3135422 C50.6278084,35.3131008 53.3635273,37.6085154 55.8419006,40.1489468 C54.3048613,43.5595293 52.0677715,46.6476593 49.2254798,49.1993883 C48.9444514,48.9875582 48.6310642,48.8171526 48.2946976,48.6959387 C48.4675119,47.0550792 48.5427811,45.3983323 48.5174569,43.7597088 C48.4996362,42.6066469 46.7411272,42.633714 46.7590652,43.7870113 C46.7834515,45.3620859 46.7107616,46.9546952 46.5438093,48.5320058 C44.4699201,48.8630492 43.1135503,51.021598 43.6849866,53.0445755 C39.8894022,55.0233041 35.6364578,56.0662144 31.3338029,56.0662144 L31.3338029,56.0662144 Z M47.1016456,53.8804807 C46.1124769,53.8804807 45.3077296,53.0668177 45.3077296,52.0666265 C45.4064471,49.6602365 48.797313,49.6610603 48.8956788,52.0666265 C48.8956788,53.0668177 48.0909314,53.8804807 47.1016456,53.8804807 Z" id="Shape"></path>
                    </g>
                </g>
            </g>
        </g>
    </g>
</svg>