<?xml version="1.0" encoding="UTF-8"?>
<svg width="60px" height="54px" viewBox="0 0 60 54" version="1.1" xmlns="http://www.w3.org/2000/svg" xmlns:xlink="http://www.w3.org/1999/xlink">
    <title>diamond</title>
    <g id="Page-1" stroke="none" stroke-width="1" fill="none" fill-rule="evenodd">
        <g id="Home-07" transform="translate(-142.000000, -3262.000000)" fill="#236192" fill-rule="nonzero">
            <g id="ADVANTAGES" transform="translate(0.000000, 2942.000000)">
                <g id="adv-1" transform="translate(106.000000, 284.000000)">
                    <g id="icon+oval" transform="translate(3.000000, 0.000000)">
                        <g id="diamond" transform="translate(33.000000, 36.000000)">
                            <path d="M59.8157015,15.4338615 C49.429642,2.11671791 49.8726093,2.45034962 49.3180799,2.3959748 L33.0601257,0.20609921 C28.9618579,-0.345969283 26.1780781,0.371567414 24.7565984,0.500121678 C24.2795296,0.564340216 23.9449604,1.00320596 24.0090618,1.4802747 C24.0732803,1.95734344 24.512732,2.29261577 24.9892148,2.22781129 C26.4308507,2.09562423 29.0163499,1.42074364 32.8273921,1.93378883 L43.9918084,3.43753387 C43.1562643,3.60780675 30.8359143,6.11842347 29.9997842,6.28881353 L16.0081116,3.43753387 L20.8444238,2.7860907 C21.3214925,2.72187217 21.6560617,2.28300643 21.5919604,1.80593769 C21.5277418,1.32875176 21.0879386,0.994065362 20.6118073,1.05840109 L10.6825432,2.39574043 C10.681137,2.39585762 10.6797307,2.39609199 10.6783245,2.39632636 L10.6651995,2.39808417 C10.6518402,2.39995916 10.6388324,2.40288884 10.6255903,2.40534977 C10.6170356,2.40699039 10.6082466,2.40816226 10.5998091,2.41003726 C10.5926607,2.41156069 10.5855123,2.41308412 10.578481,2.41472474 C10.5685201,2.41718567 10.5586764,2.42011535 10.5488327,2.42281065 C10.5335984,2.42702939 10.5183641,2.43113094 10.5033641,2.43616998 C10.4971532,2.43827935 10.4912938,2.44085747 10.4850829,2.44308402 C10.4823876,2.44402152 10.4796923,2.4450762 10.4771142,2.44613089 C10.4684423,2.44941213 10.4594189,2.45245899 10.4508643,2.45585742 C10.4351612,2.46230271 10.4199269,2.46945112 10.4046926,2.47683391 C10.3980129,2.47999796 10.3914504,2.48292764 10.3848879,2.48620888 C10.3775051,2.48995887 10.3703567,2.49359167 10.3632083,2.49745884 C10.3562943,2.50120883 10.3497318,2.50542757 10.3428178,2.50952912 C9.96430338,2.73007526 10.1491075,2.74566115 0.184335622,15.4337443 C-0.0228511953,15.6995247 -0.0584760778,16.0608126 0.0931640473,16.3618663 C0.444022266,17.0579577 -0.489138721,15.6839388 18.7470088,41.2174874 C19.0369297,41.6018612 19.5834904,41.6782672 19.9678642,41.3883463 C20.3521207,41.0984253 20.4285267,40.5518646 20.138723,40.1674909 L3.2428021,17.7735022 L16.8953352,22.0738006 C17.222756,22.9373524 27.2229184,49.3134764 27.4084256,49.8028498 L22.597543,43.4265817 C22.3076221,43.042208 21.7611786,42.965802 21.3766876,43.2557229 C20.9923139,43.5456438 20.9160251,44.0922045 21.2058288,44.4765783 C26.2433513,51.1519078 26.762373,51.8436634 26.7982323,51.8840929 C27.4346755,52.6013952 28.3148679,53.0550265 29.1567401,53.1970573 C29.28131,53.2182682 30.741813,53.2177994 30.863922,53.1940105 C31.9254029,52.9878783 32.8220015,52.3882319 33.2452813,51.8307728 L50.2601471,29.2789331 C50.5499508,28.8945593 50.4735448,28.3479986 50.0892883,28.0580777 C49.7046802,27.7683912 49.158471,27.8447972 48.8684329,28.2289365 L32.5911429,49.8033185 C33.1111021,48.4318777 42.7223204,23.0817269 43.1044676,22.0739177 L56.7571179,17.7736194 L51.3186983,24.9815644 C51.0288946,25.3659381 51.1051834,25.9124988 51.4895571,26.2024198 C51.874048,26.4923407 52.4204915,26.4159347 52.7104125,26.0315609 C60.011404,16.3455773 59.6180069,16.9326847 59.90617,16.3632725 C60.0585132,16.0619844 60.0232399,15.6999934 59.8157015,15.4338615 Z M29.9999014,8.5007203 L40.5161558,20.4977511 L19.4837642,20.4977511 L29.9999014,8.5007203 Z M2.24178978,15.6305015 L10.5110985,5.02612238 L16.1174472,20.0013465 L2.24178978,15.6305015 Z M12.1497259,4.4303431 C13.8756577,4.78202162 26.25132,7.30412268 28.3549459,7.73279315 L17.8657617,19.6988865 L12.1497259,4.4303431 Z M30.0962292,51.4667896 L29.903808,51.4667896 L18.8231804,22.2409094 L41.1768567,22.2409094 L30.0962292,51.4667896 Z M42.1340411,19.6987693 L31.6448569,7.73279315 C33.0402039,7.44838002 45.7044981,4.8676854 47.8500769,4.4303431 L42.1340411,19.6987693 Z M43.8823556,20.0011121 L49.4887043,5.02588801 L57.7581302,15.6303843 L43.8823556,20.0011121 Z" id="Shape"></path>
                        </g>
                    </g>
                </g>
            </g>
        </g>
    </g>
</svg>