<?xml version="1.0" encoding="UTF-8"?>
<svg width="61px" height="50px" viewBox="0 0 61 50" version="1.1" xmlns="http://www.w3.org/2000/svg" xmlns:xlink="http://www.w3.org/1999/xlink">
    <title>chat</title>
    <g id="Page-1" stroke="none" stroke-width="1" fill="none" fill-rule="evenodd">
        <g id="Home-07" transform="translate(-413.000000, -3264.000000)" fill="#236192" fill-rule="nonzero">
            <g id="ADVANTAGES" transform="translate(0.000000, 2942.000000)">
                <g id="adv-2" transform="translate(370.000000, 284.000000)">
                    <g id="icon+oval" transform="translate(10.500000, 0.000000)">
                        <g id="chat" transform="translate(33.000000, 38.000000)">
                            <path d="M53.8190746,0 L49.0768573,0 C48.5926395,0 48.2001793,0.392460171 48.2001793,0.876677975 C48.2001793,1.36089578 48.5926395,1.75335595 49.0768573,1.75335595 L53.8190746,1.75335595 C56.2603198,1.75335595 58.2465269,3.73944582 58.2465269,6.18080824 L58.2465269,26.2376441 C58.2465269,28.6790065 56.260437,30.6650964 53.8190746,30.6650964 L45.9256916,30.6650964 L45.9256916,16.2883276 C45.9256916,12.8802873 43.1530407,10.1076365 39.7450005,10.1076365 L15.8275472,10.1076365 L15.8275472,6.18080824 C15.8275472,3.73956301 17.8136371,1.75335595 20.2548823,1.75335595 L44.94542,1.75335595 C45.4296378,1.75335595 45.822098,1.36089578 45.822098,0.876677975 C45.822098,0.392460171 45.4296378,0 44.94542,0 L20.2548823,0 C16.8468421,0 14.0741913,2.77265083 14.0741913,6.18080824 L14.0741913,10.1076365 L6.18080824,10.1076365 C2.77265083,10.1076365 0,12.8802873 0,16.2883276 L0,28.0199453 C0,28.5041631 0.392460171,28.8966232 0.876677975,28.8966232 C1.36089578,28.8966232 1.75335595,28.5041631 1.75335595,28.0199453 L1.75335595,16.2883276 C1.75335595,13.8470823 3.73944582,11.8609925 6.18080824,11.8609925 L39.7450005,11.8609925 C42.1862457,11.8609925 44.1723356,13.8470823 44.1723356,16.2883276 L44.1723356,36.3452806 C44.1723356,38.7865258 42.1862457,40.7726157 39.7450005,40.7726157 L18.3494173,40.7726157 C17.773559,40.7726157 17.2687163,41.1808961 17.1491853,41.7435122 C17.0289511,42.309058 16.6115301,43.7742504 15.3351263,45.1632712 C13.9355587,46.6865885 11.9568516,47.6401413 9.44201281,48.0064687 C11.5032197,45.7674887 12.0764999,43.470501 11.0490019,41.4472628 C10.8374788,41.0310136 10.4172453,40.7726157 9.95236337,40.7726157 L6.18080824,40.7726157 C3.73956301,40.7726157 1.75335595,38.7865258 1.75335595,36.3452806 L1.75335595,32.145406 C1.75335595,31.6611882 1.36089578,31.268728 0.876677975,31.268728 C0.392460171,31.268728 0,31.6611882 0,32.145406 L0,36.3452806 C0,39.7533208 2.77265083,42.5259716 6.18080824,42.5259716 L9.61134842,42.5259716 C10.3566595,44.5043271 8.52666303,46.553581 7.32877475,47.6279539 C6.91158806,48.0021328 6.78209613,48.5776395 6.99924414,49.0940838 C7.21275935,49.6019734 7.73822707,49.9216603 8.28361663,49.8883791 C11.8762268,49.6552936 14.6832135,48.464671 16.62653,46.3495579 C17.94559,44.9140138 18.5222685,43.3936262 18.7619165,42.5258544 L39.7451177,42.5258544 C43.1531579,42.5258544 45.9258087,39.7532036 45.9258087,36.3451634 L45.9258087,32.4183351 L53.8191918,32.4183351 C57.2273492,32.4183351 60,29.6456843 60,26.2375269 L60,6.18080824 C60,2.77265083 57.227232,0 53.8190746,0 Z" id="Path"></path>
                            <path d="M12.6398191,26.3167455 C12.6398191,24.6102644 11.2516186,23.222064 9.54513761,23.222064 C7.83865657,23.222064 6.45033896,24.6102644 6.45033896,26.3167455 C6.45033896,28.0232265 7.83865657,29.4114269 9.54513761,29.4114269 C11.2516186,29.4114269 12.6398191,28.0232265 12.6398191,26.3167455 Z M8.20369491,26.3167455 C8.20369491,25.5771766 8.80545155,24.97542 9.54513761,24.97542 C10.2847065,24.97542 10.8864631,25.5771766 10.8864631,26.3167455 C10.8864631,27.0563143 10.2847065,27.658071 9.54513761,27.658071 C8.80545155,27.658071 8.20369491,27.0564315 8.20369491,26.3167455 Z" id="Shape"></path>
                            <path d="M21.585075,26.3167455 C21.585075,24.6102644 20.1968746,23.222064 18.4903936,23.222064 C16.7839125,23.222064 15.3955949,24.6102644 15.3955949,26.3167455 C15.3955949,28.0232265 16.7839125,29.4114269 18.4903936,29.4114269 C20.1968746,29.4114269 21.585075,28.0232265 21.585075,26.3167455 L21.585075,26.3167455 Z M17.1489509,26.3167455 C17.1489509,25.5771766 17.7507075,24.97542 18.4903936,24.97542 C19.2299624,24.97542 19.8317191,25.5771766 19.8317191,26.3167455 C19.8317191,27.0563143 19.2299624,27.658071 18.4903936,27.658071 C17.7505903,27.658071 17.1489509,27.0564315 17.1489509,26.3167455 Z" id="Shape"></path>
                            <path d="M30.5302138,26.3167455 C30.5302138,24.6102644 29.1420134,23.222064 27.4355324,23.222064 C25.7290513,23.222064 24.3408509,24.6102644 24.3408509,26.3167455 C24.3408509,28.0232265 25.7290513,29.4114269 27.4355324,29.4114269 C29.1420134,29.4115441 30.5302138,28.0232265 30.5302138,26.3167455 Z M26.0942068,26.3167455 C26.0942068,25.5771766 26.6959635,24.97542 27.4355324,24.97542 C28.1751012,24.97542 28.7768579,25.5771766 28.7768579,26.3167455 C28.7768579,27.0563143 28.1751012,27.658071 27.4355324,27.658071 C26.6958463,27.658071 26.0942068,27.0564315 26.0942068,26.3167455 Z" id="Shape"></path>
                            <path d="M39.4753526,26.3167455 C39.4753526,24.6102644 38.0871522,23.222064 36.3806711,23.222064 C34.6741901,23.222064 33.2859897,24.6102644 33.2859897,26.3167455 C33.2859897,28.0232265 34.6741901,29.4114269 36.3806711,29.4114269 C38.0871522,29.4114269 39.4753526,28.0232265 39.4753526,26.3167455 Z M35.0393456,26.3167455 C35.0393456,25.5771766 35.6411023,24.97542 36.3806711,24.97542 C37.12024,24.97542 37.7219966,25.5771766 37.7219966,26.3167455 C37.7219966,27.0563143 37.12024,27.658071 36.3806711,27.658071 C35.6411023,27.658071 35.0393456,27.0564315 35.0393456,26.3167455 Z" id="Shape"></path>
                        </g>
                    </g>
                </g>
            </g>
        </g>
    </g>
</svg>