<?xml version="1.0" encoding="UTF-8"?>
<svg width="60px" height="60px" viewBox="0 0 60 60" version="1.1" xmlns="http://www.w3.org/2000/svg" xmlns:xlink="http://www.w3.org/1999/xlink">
    <title>milky-way</title>
    <g id="Page-1" stroke="none" stroke-width="1" fill="none" fill-rule="evenodd">
        <g id="Home-07" transform="translate(-970.000000, -3259.000000)" fill="#236192" fill-rule="nonzero">
            <g id="ADVANTAGES" transform="translate(0.000000, 2942.000000)">
                <g id="adv-4" transform="translate(925.000000, 284.000000)">
                    <g id="icon+oval" transform="translate(12.000000, 0.000000)">
                        <g id="milky-way" transform="translate(33.000000, 33.000000)">
                            <path d="M25.7881641,31.794375 L27.6686719,32.2645313 C27.7017187,32.2727344 27.7273828,32.2983984 27.7355859,32.3313281 L28.2057422,34.2119531 C28.4152734,35.0498437 29.1363281,35.6128125 30.0001172,35.6128125 C30.8639062,35.6128125 31.5849609,35.0498438 31.7944922,34.2119531 L32.2646484,32.3313281 C32.2728516,32.2983984 32.2985156,32.2727344 32.3315625,32.2645313 L34.2120703,31.794375 C35.0500781,31.5848438 35.6130469,30.8637891 35.6130469,30 C35.6130469,29.1362109 35.0500781,28.4151562 34.2119531,28.205625 L32.3314453,27.7354687 C32.2983984,27.7272656 32.2728516,27.7016016 32.2645312,27.6686719 L31.794375,25.7880469 C31.5848437,24.9501562 30.8637891,24.3871875 30,24.3871875 C29.1362109,24.3871875 28.4151562,24.9501562 28.205625,25.7880469 L27.7354687,27.6686719 C27.7272656,27.7016016 27.7016016,27.7272656 27.6686719,27.7354687 L25.7880469,28.205625 C24.9500391,28.4151562 24.3870703,29.1362109 24.3870703,30 C24.3870703,30.8637891 24.9500391,31.5848438 25.7881641,31.794375 L25.7881641,31.794375 Z M26.214375,29.9109375 L28.0951172,29.4407813 C28.7591016,29.2747266 29.2747266,28.7591016 29.4407813,28.095 L29.9109375,26.214375 C29.9198437,26.1786328 29.9282812,26.1448828 30,26.1448828 C30.0717187,26.1448828 30.0801563,26.1786328 30.0890625,26.214375 L30.5592187,28.095 C30.7252734,28.7591016 31.2408984,29.2747266 31.905,29.4407813 L33.7855078,29.9109375 C33.82125,29.9198438 33.8551172,29.9282813 33.8551172,30 C33.8551172,30.0717187 33.82125,30.0801563 33.785625,30.0890625 L31.905,30.5592187 C31.2408984,30.7252734 30.7253906,31.2408984 30.5593359,31.905 L30.0891797,33.785625 C30.0802734,33.8213672 30.0717187,33.8551172 30.0001172,33.8551172 C29.9283984,33.8551172 29.9199609,33.8213672 29.9110547,33.785625 L29.4408984,31.905 C29.2748437,31.2408984 28.7592187,30.7252734 28.0951172,30.5592187 L26.2146094,30.0890625 C26.1788672,30.0801562 26.145,30.0717187 26.145,30 C26.145,29.9282813 26.17875,29.9198438 26.214375,29.9109375 Z" id="Shape"></path>
                            <path d="M23.1895312,24.4577344 C22.7845313,24.1901953 22.239375,24.3016406 21.9717188,24.7066406 C20.9335547,26.2784766 20.3847656,28.1089453 20.3847656,30 C20.3847656,35.3017969 24.6982031,39.6152344 30,39.6152344 C35.3017969,39.6152344 39.6152344,35.3017969 39.6152344,30 C39.6152344,24.6982031 35.3017969,20.3847656 30,20.3847656 C28.1088281,20.3847656 26.2784766,20.9335547 24.7067578,21.9717188 C24.3017578,22.2392578 24.1903125,22.7845313 24.4578516,23.1895312 C24.7253906,23.5945312 25.2705469,23.7059766 25.6756641,23.4384375 C26.9591016,22.5907031 28.4544141,22.1425781 30,22.1425781 C34.3325391,22.1425781 37.8574219,25.6673438 37.8574219,30 C37.8574219,34.3326562 34.3325391,37.8574219 30,37.8574219 C25.6674609,37.8574219 22.1425781,34.3326563 22.1425781,30 C22.1425781,28.4544141 22.5907031,26.9591016 23.4385547,25.6755469 C23.7060937,25.2704297 23.5945312,24.7251563 23.1895312,24.4577344 Z" id="Path"></path>
                            <path d="M32.01375,54.0930469 C32.4975,54.0530859 32.8572656,53.6285156 32.8173047,53.1447656 C32.7773438,52.6610156 32.3510156,52.2998438 31.8690234,52.3410937 C31.2521484,52.3920703 30.6233203,52.4178516 29.9998828,52.4178516 C17.6385938,52.4178516 7.58191406,42.3612891 7.58191406,29.9998828 C7.58191406,26.0583984 8.61890625,22.1825391 10.580625,18.7914844 C10.8236719,18.37125 10.6801172,17.8335937 10.2598828,17.5905469 C9.83988281,17.3477344 9.30210938,17.4910547 9.0590625,17.9111719 C6.94289063,21.5696484 5.82421875,25.7498437 5.82421875,30 C5.82421875,43.3305469 16.6694531,54.1757812 30,54.1757812 C30.6714844,54.1757812 31.3490625,54.1478906 32.01375,54.0930469 L32.01375,54.0930469 Z" id="Path"></path>
                            <path d="M21.94125,7.20011719 C21.4836328,7.36195313 21.24375,7.86398438 21.4054688,8.32160156 C21.5671875,8.77921875 22.0689844,9.01886719 22.5270703,8.85738281 C24.9215625,8.01117188 27.4357031,7.58203125 30,7.58203125 C42.3612891,7.58203125 52.4179687,17.6385938 52.4179687,30 C52.4179687,34.2260156 51.2457422,38.3125781 49.0217578,41.8682813 C48.7560937,41.7851953 48.4736719,41.7403125 48.1810547,41.7403125 C46.6258594,41.7403125 45.3607031,43.0054688 45.3607031,44.5605469 C45.3607031,45.0714844 45.4980469,45.5507813 45.7366406,45.9645703 C43.8705469,47.8059375 41.7228516,49.2922266 39.3406641,50.3855859 C38.8994531,50.5880859 38.7059766,51.1099219 38.9084766,51.5510156 C39.0564844,51.8733984 39.3748828,52.0634766 39.7078125,52.0634766 C39.8303906,52.0634766 39.9550781,52.0375781 40.0739063,51.9830859 C42.6751172,50.7891797 45.0172266,49.1615625 47.0464453,47.1416016 C47.3939063,47.2948828 47.7775781,47.3807813 48.1810547,47.3807813 C49.73625,47.3807813 51.0012891,46.115625 51.0012891,44.5605469 C51.0012891,43.936875 50.7975,43.3601953 50.4535547,42.8927344 C52.8903516,39.035625 54.1757813,34.5939844 54.1757813,30 C54.1757813,16.6694531 43.3305469,5.82421875 30,5.82421875 C27.2356641,5.82421875 24.5242969,6.28710938 21.94125,7.20011719 L21.94125,7.20011719 Z M48.1810547,45.6229688 C47.5951172,45.6229688 47.1185156,45.1463672 47.1185156,44.5605469 C47.1185156,43.9747266 47.5951172,43.498125 48.1810547,43.498125 C48.766875,43.498125 49.2434766,43.9747266 49.2434766,44.5605469 C49.2434766,45.1463672 48.766875,45.6229688 48.1810547,45.6229688 Z" id="Shape"></path>
                            <path d="M0.87890625,30.8789062 C1.36429687,30.8789062 1.7578125,30.4855078 1.7578125,30 C1.7578125,22.7946094 4.44445313,15.9914063 9.33960938,10.7460938 C9.96363281,11.1976172 10.7293359,11.4648047 11.5566797,11.4648047 C13.6470703,11.4648047 15.3476953,9.76417969 15.3476953,7.67378906 C15.3476953,7.10167969 15.2196094,6.55921875 14.9916797,6.07242187 C19.4845312,3.24761719 24.6547266,1.7578125 30,1.7578125 C30.4853906,1.7578125 30.8789062,1.36441406 30.8789062,0.87890625 C30.8789062,0.393398437 30.4853906,0 30,0 C24.2561719,0 18.7019531,1.61964844 13.89,4.689375 C13.2460547,4.18488281 12.4361719,3.88289062 11.5565625,3.88289062 C9.46617187,3.88289062 7.76554687,5.58351562 7.76554687,7.67390625 C7.76554687,8.29757813 7.91789062,8.88609375 8.18589844,9.40558594 C2.90179687,14.9960156 0,22.2812109 0,30 C0,30.4855078 0.393515625,30.8789062 0.87890625,30.8789062 Z M11.5566797,5.64070312 C12.6778125,5.64070312 13.5898828,6.55277344 13.5898828,7.67390625 C13.5898828,8.79503906 12.6778125,9.70710937 11.5566797,9.70710937 C10.4355469,9.70710937 9.52347656,8.79503906 9.52347656,7.67390625 C9.52347656,6.55277344 10.4355469,5.64070312 11.5566797,5.64070312 L11.5566797,5.64070312 Z" id="Shape"></path>
                            <path d="M59.1210938,29.1210938 C58.6357031,29.1210938 58.2421875,29.5144922 58.2421875,30 C58.2421875,45.5728125 45.5728125,58.2421875 30,58.2421875 C29.5146094,58.2421875 29.1210938,58.6355859 29.1210938,59.1210938 C29.1210938,59.6066016 29.5146094,60 30,60 C38.0132812,60 45.5470313,56.8794141 51.2132812,51.2132813 C56.8795312,45.5470313 60,38.0132813 60,30 C60,29.5144922 59.6064844,29.1210938 59.1210938,29.1210938 Z" id="Path"></path>
                            <path d="M42.1232812,16.501875 C41.3867578,16.501875 40.6991016,16.71375 40.1166797,17.0786719 C37.2384375,14.8239844 33.6737109,13.5898828 30,13.5898828 C21.9724219,13.5898828 15.1376953,19.4169141 13.8189844,27.2561719 C12.5762109,27.5504297 11.6484375,28.6685156 11.6484375,30 C11.6484375,31.3314844 12.5760938,32.4495703 13.8188672,32.7438281 C15.1375781,40.5832031 21.9723047,46.4101172 30,46.4101172 C33.75375,46.4101172 37.2866016,45.1764844 40.2167578,42.8425781 C40.5964453,42.5402344 40.6590234,41.9872266 40.3565625,41.6075391 C40.0541016,41.2278516 39.5013281,41.1652734 39.1215234,41.4677344 C36.5058984,43.5510938 33.3516797,44.6524219 30,44.6524219 C22.8803906,44.6524219 16.8120703,39.5203125 15.5769141,32.5932422 C16.5827344,32.161875 17.2891406,31.1620313 17.2891406,30.0001172 C17.2891406,28.8382031 16.5827344,27.8384766 15.5770312,27.4069922 C16.8121875,20.4799219 22.880625,15.3478125 30.0001172,15.3478125 C33.2136328,15.3478125 36.3331641,16.4058984 38.8747266,18.3414844 C38.5307812,18.9119531 38.3323828,19.5798047 38.3323828,20.293125 C38.3323828,22.3835156 40.0330078,24.0841406 42.1233984,24.0841406 C42.5416406,24.0841406 42.9437109,24.0151172 43.3202344,23.8894922 C44.1933984,25.7942578 44.6524219,27.8896875 44.6524219,30.0002344 C44.6524219,33.3520312 43.5512109,36.5061328 41.4677344,39.1217578 C41.1652734,39.5014453 41.2279688,40.0544531 41.6075391,40.3567969 C41.769375,40.4858203 41.9626172,40.5482813 42.1545703,40.5482813 C42.4130859,40.5482813 42.6691406,40.4348437 42.8425781,40.2169922 C45.1764844,37.2868359 46.4101172,33.7541016 46.4101172,30.0002344 C46.4101172,27.5617969 45.8614453,25.1410547 44.8214062,22.9529297 C45.4966406,22.2680859 45.9142969,21.3287109 45.9142969,20.2932422 C45.9142969,18.2026172 44.2136719,16.501875 42.1232812,16.501875 Z M14.4687891,28.9375781 C15.0546094,28.9375781 15.5312109,29.4141797 15.5312109,30 C15.5312109,30.5858203 15.0546094,31.0624219 14.4687891,31.0624219 C13.8829687,31.0624219 13.40625,30.5858203 13.40625,30 C13.40625,29.4141797 13.8828516,28.9375781 14.4687891,28.9375781 Z M40.0900781,20.2930078 C40.0900781,19.171875 41.0021484,18.2596875 42.1232812,18.2596875 C43.2444141,18.2596875 44.1564844,19.1717578 44.1564844,20.2930078 C44.1564844,21.4140234 43.2444141,22.3262109 42.1232812,22.3262109 C41.0021484,22.3262109 40.0900781,21.4140234 40.0900781,20.2930078 Z" id="Shape"></path>
                            <path d="M41.6484375,3.69914063 L42.7109766,3.69914063 L42.7109766,4.76167969 C42.7109766,5.2471875 43.1044922,5.64058594 43.5898828,5.64058594 C44.0752734,5.64058594 44.4687891,5.2471875 44.4687891,4.76167969 L44.4687891,3.69914063 L45.5312109,3.69914063 C46.0166016,3.69914063 46.4101172,3.30574219 46.4101172,2.82023438 C46.4101172,2.33472656 46.0166016,1.94132813 45.5312109,1.94132813 L44.4687891,1.94132813 L44.4687891,0.87890625 C44.4687891,0.393398438 44.0752734,2.91433544e-15 43.5898828,2.91433544e-15 C43.1044922,2.91433544e-15 42.7109766,0.393398438 42.7109766,0.87890625 L42.7109766,1.94132813 L41.6484375,1.94132813 C41.1630469,1.94132813 40.7695312,2.33472656 40.7695312,2.82023438 C40.7695312,3.30574219 41.1630469,3.69914063 41.6484375,3.69914063 Z" id="Path"></path>
                            <path d="M18.3515625,56.3008594 L17.2890234,56.3008594 L17.2890234,55.2383203 C17.2890234,54.7528125 16.8955078,54.3594141 16.4101172,54.3594141 C15.9247266,54.3594141 15.5312109,54.7528125 15.5312109,55.2383203 L15.5312109,56.3008594 L14.4687891,56.3008594 C13.9833984,56.3008594 13.5898828,56.6942578 13.5898828,57.1797656 C13.5898828,57.6652734 13.9833984,58.0586719 14.4687891,58.0586719 L15.5312109,58.0586719 L15.5312109,59.1210938 C15.5312109,59.6066016 15.9247266,60 16.4101172,60 C16.8955078,60 17.2890234,59.6066016 17.2890234,59.1210938 L17.2890234,58.0586719 L18.3515625,58.0586719 C18.8369531,58.0586719 19.2304688,57.6652734 19.2304688,57.1797656 C19.2304688,56.6942578 18.8369531,56.3008594 18.3515625,56.3008594 Z" id="Path"></path>
                            <path d="M5.73246094,44.6523047 C5.24707031,44.6523047 4.85355469,45.0457031 4.85355469,45.5312109 L4.85355469,47.4726562 C4.85355469,47.9581641 5.24707031,48.3515625 5.73246094,48.3515625 C6.21785156,48.3515625 6.61136719,47.9581641 6.61136719,47.4726562 L6.61136719,45.5313281 C6.61136719,45.0458203 6.21785156,44.6523047 5.73246094,44.6523047 L5.73246094,44.6523047 Z" id="Path"></path>
                            <path d="M5.73246094,52.4179688 C5.24707031,52.4179688 4.85355469,52.8113672 4.85355469,53.296875 L4.85355469,55.2382031 C4.85355469,55.7237109 5.24707031,56.1171094 5.73246094,56.1171094 C6.21785156,56.1171094 6.61136719,55.7237109 6.61136719,55.2382031 L6.61136719,53.296875 C6.61136719,52.8113672 6.21785156,52.4179688 5.73246094,52.4179688 Z" id="Path"></path>
                            <path d="M10.5860156,49.5058594 L8.64457031,49.5058594 C8.15917969,49.5058594 7.76566406,49.8992578 7.76566406,50.3847656 C7.76566406,50.8702734 8.15917969,51.2636719 8.64457031,51.2636719 L10.5860156,51.2636719 C11.0714062,51.2636719 11.4649219,50.8702734 11.4649219,50.3847656 C11.4649219,49.8992578 11.0714062,49.5058594 10.5860156,49.5058594 Z" id="Path"></path>
                            <path d="M2.82035156,49.5058594 L0.87890625,49.5058594 C0.393515625,49.5058594 0,49.8992578 0,50.3847656 C0,50.8702734 0.393515625,51.2636719 0.87890625,51.2636719 L2.82035156,51.2636719 C3.30574219,51.2636719 3.69925781,50.8702734 3.69925781,50.3847656 C3.69925781,49.8992578 3.30574219,49.5058594 2.82035156,49.5058594 Z" id="Path"></path>
                            <path d="M54.2675391,7.58203125 C54.7529297,7.58203125 55.1464453,7.18863281 55.1464453,6.703125 L55.1464453,4.76179688 C55.1464453,4.27628906 54.7529297,3.88289063 54.2675391,3.88289063 C53.7821484,3.88289063 53.3886328,4.27628906 53.3886328,4.76179688 L53.3886328,6.703125 C53.3886328,7.18863281 53.7821484,7.58203125 54.2675391,7.58203125 Z" id="Path"></path>
                            <path d="M54.2675391,15.3476953 C54.7529297,15.3476953 55.1464453,14.9542969 55.1464453,14.4687891 L55.1464453,12.5273438 C55.1464453,12.0418359 54.7529297,11.6484375 54.2675391,11.6484375 C53.7821484,11.6484375 53.3886328,12.0418359 53.3886328,12.5273438 L53.3886328,14.4686719 C53.3886328,14.9541797 53.7821484,15.3476953 54.2675391,15.3476953 Z" id="Path"></path>
                            <path d="M57.1796484,10.4941406 L59.1210938,10.4941406 C59.6064844,10.4941406 60,10.1007422 60,9.61523438 C60,9.12972656 59.6064844,8.73632813 59.1210938,8.73632813 L57.1796484,8.73632813 C56.6942578,8.73632813 56.3007422,9.12972656 56.3007422,9.61523438 C56.3007422,10.100625 56.6942578,10.4941406 57.1796484,10.4941406 Z" id="Path"></path>
                            <path d="M49.4141016,10.4941406 L51.3555469,10.4941406 C51.8409375,10.4941406 52.2344531,10.1007422 52.2344531,9.61523438 C52.2344531,9.12972656 51.8409375,8.73632813 51.3555469,8.73632813 L49.4141016,8.73632813 C48.9287109,8.73632813 48.5351953,9.12972656 48.5351953,9.61523438 C48.5351953,10.100625 48.9285937,10.4941406 49.4141016,10.4941406 Z" id="Path"></path>
                        </g>
                    </g>
                </g>
            </g>
        </g>
    </g>
</svg>