<?xml version="1.0" encoding="UTF-8"?>
<svg width="60px" height="60px" viewBox="0 0 60 60" version="1.1" xmlns="http://www.w3.org/2000/svg" xmlns:xlink="http://www.w3.org/1999/xlink">
    <title>document</title>
    <g id="Page-1" stroke="none" stroke-width="1" fill="none" fill-rule="evenodd">
        <g id="Home-07" transform="translate(-695.000000, -3259.000000)" fill="#236192" fill-rule="nonzero">
            <g id="ADVANTAGES" transform="translate(0.000000, 2942.000000)">
                <g id="adv-3" transform="translate(649.500000, 284.000000)">
                    <g id="icon+oval" transform="translate(13.000000, 0.000000)">
                        <g id="document" transform="translate(33.000000, 33.000000)">
                            <path d="M45.8665004,5.09580064 L43.6680274,5.09580064 L43.6680274,2.72763399 C43.6680274,1.223605 42.4444224,0 40.9403934,0 L16.5982912,0 C16.1174152,0 15.7277697,0.389645417 15.7277697,0.870521487 C15.7277697,1.35139756 16.1174152,1.74104297 16.5982912,1.74104297 L40.9403934,1.74104297 C41.4844113,1.74104297 41.9269844,2.1836161 41.9269844,2.72763399 L41.9269844,5.09580064 L7.65362491,5.09580064 C6.14959592,5.09580064 4.92599092,6.31940565 4.92599092,7.82343464 L4.92599092,52.5906405 L2.72763399,52.5906405 C2.1836161,52.5906405 1.74104297,52.1480673 1.74104297,51.6040494 L1.74104297,2.72763399 C1.74104297,2.1836161 2.1836161,1.74104297 2.72763399,1.74104297 L12.5261078,1.74104297 C13.0069838,1.74104297 13.3966293,1.35139756 13.3966293,0.870521487 C13.3966293,0.389645417 13.0069838,0 12.5261078,0 L2.72763399,0 C1.223605,0 0,1.223605 0,2.72763399 L0,51.6041655 C0,53.1081945 1.223605,54.3317995 2.72763399,54.3317995 L4.92599092,54.3317995 L4.92599092,56.6999662 C4.92599092,58.2039952 6.14959592,59.4276002 7.65362491,59.4276002 L45.8665004,59.4276002 C47.3705294,59.4276002 48.5941344,58.2039952 48.5941344,56.6999662 L48.5941344,7.82343464 C48.5941344,6.31940565 47.3705294,5.09580064 45.8665004,5.09580064 Z M46.8530914,56.6999662 C46.8530914,57.2439841 46.4105183,57.6865572 45.8665004,57.6865572 L7.65362491,57.6865572 C7.10960702,57.6865572 6.66703389,57.2439841 6.66703389,56.6999662 C6.66703389,56.135404 6.66703389,8.3972824 6.66703389,7.82343464 C6.66703389,7.27941674 7.10960702,6.83684362 7.65362491,6.83684362 L45.8665004,6.83684362 C46.4105183,6.83684362 46.8530914,7.27941674 46.8530914,7.82343464 L46.8530914,56.6999662 Z" id="Shape"></path>
                            <path d="M15.1979123,12.2146932 C13.284274,12.2146932 11.7274333,13.7715338 11.7274333,15.6851722 C11.7274333,17.5988106 13.284274,19.1556512 15.1979123,19.1556512 C17.1114346,19.1556512 18.6682752,17.5988106 18.6682752,15.6851722 C18.6682752,13.7715338 17.1115507,12.2146932 15.1979123,12.2146932 L15.1979123,12.2146932 Z M15.1979123,17.4147243 C14.2442851,17.4147243 13.4684763,16.6387995 13.4684763,15.6852883 C13.4684763,14.7317771 14.2444011,13.9558523 15.1979123,13.9558523 C16.1514235,13.9558523 16.9272323,14.7317771 16.9272323,15.6852883 C16.9272323,16.6387995 16.1515396,17.4147243 15.1979123,17.4147243 Z" id="Shape"></path>
                            <path d="M40.9221705,12.9983947 L21.5024611,12.9983947 C21.021585,12.9983947 20.6319396,13.3880401 20.6319396,13.8689162 C20.6319396,14.3497923 21.021585,14.7394377 21.5024611,14.7394377 L40.9222865,14.7394377 C41.4031626,14.7394377 41.792808,14.3497923 41.792808,13.8689162 C41.792808,13.3880401 41.4030465,12.9983947 40.9221705,12.9983947 Z" id="Path"></path>
                            <path d="M21.5024611,18.3720658 L36.716391,18.3720658 C37.1972671,18.3720658 37.5869125,17.9824204 37.5869125,17.5015443 C37.5869125,17.0206682 37.1972671,16.6310228 36.716391,16.6310228 L21.5024611,16.6310228 C21.021585,16.6310228 20.6319396,17.0206682 20.6319396,17.5015443 C20.6319396,17.9824204 21.021585,18.3720658 21.5024611,18.3720658 Z" id="Path"></path>
                            <path d="M15.1979123,23.4012425 C13.284274,23.4012425 11.7274333,24.9580832 11.7274333,26.8717215 C11.7274333,28.7853599 13.284274,30.3422005 15.1979123,30.3422005 C17.1114346,30.3422005 18.6682752,28.7853599 18.6682752,26.8717215 C18.6682752,24.9580832 17.1115507,23.4012425 15.1979123,23.4012425 L15.1979123,23.4012425 Z M15.1979123,28.6012736 C14.2442851,28.6012736 13.4684763,27.8253488 13.4684763,26.8718376 C13.4684763,25.9183264 14.2444011,25.1424016 15.1979123,25.1424016 C16.1514235,25.1424016 16.9272323,25.9183264 16.9272323,26.8718376 C16.9272323,27.8253488 16.1515396,28.6012736 15.1979123,28.6012736 Z" id="Shape"></path>
                            <path d="M40.9221705,24.184944 L21.5024611,24.184944 C21.021585,24.184944 20.6319396,24.5745894 20.6319396,25.0554655 C20.6319396,25.5363416 21.021585,25.925987 21.5024611,25.925987 L40.9222865,25.925987 C41.4031626,25.925987 41.792808,25.5363416 41.792808,25.0554655 C41.792808,24.5745894 41.4030465,24.184944 40.9221705,24.184944 Z" id="Path"></path>
                            <path d="M21.5024611,29.5586151 L36.716391,29.5586151 C37.1972671,29.5586151 37.5869125,29.1689697 37.5869125,28.6880936 C37.5869125,28.2072176 37.1972671,27.8175721 36.716391,27.8175721 L21.5024611,27.8175721 C21.021585,27.8175721 20.6319396,28.2072176 20.6319396,28.6880936 C20.6319396,29.1689697 21.021585,29.5586151 21.5024611,29.5586151 Z" id="Path"></path>
                            <path d="M15.1979123,34.5877918 C13.284274,34.5877918 11.7274333,36.1446325 11.7274333,38.0582708 C11.7274333,39.9719092 13.284274,41.5287498 15.1979123,41.5287498 C17.1114346,41.5287498 18.6682752,39.9719092 18.6682752,38.0582708 C18.6682752,36.1446325 17.1115507,34.5877918 15.1979123,34.5877918 Z M15.1979123,39.7878229 C14.2442851,39.7878229 13.4684763,39.0118981 13.4684763,38.0583869 C13.4684763,37.1048757 14.2444011,36.3289509 15.1979123,36.3289509 C16.1514235,36.3289509 16.9272323,37.1048757 16.9272323,38.0583869 C16.9272323,39.0118981 16.1515396,39.7878229 15.1979123,39.7878229 Z" id="Shape"></path>
                            <path d="M40.9221705,35.3714933 L21.5024611,35.3714933 C21.021585,35.3714933 20.6319396,35.7611387 20.6319396,36.2420148 C20.6319396,36.7228909 21.021585,37.1125363 21.5024611,37.1125363 L40.9222865,37.1125363 C41.4031626,37.1125363 41.792808,36.7228909 41.792808,36.2420148 C41.792808,35.7611387 41.4030465,35.3714933 40.9221705,35.3714933 Z" id="Path"></path>
                            <path d="M21.5024611,40.7451644 L36.716391,40.7451644 C37.1972671,40.7451644 37.5869125,40.355519 37.5869125,39.8746429 C37.5869125,39.3937669 37.1972671,39.0041215 36.716391,39.0041215 L21.5024611,39.0041215 C21.021585,39.0041215 20.6319396,39.3937669 20.6319396,39.8746429 C20.6319396,40.355519 21.021585,40.7451644 21.5024611,40.7451644 Z" id="Path"></path>
                            <path d="M15.1979123,45.7743412 C13.284274,45.7743412 11.7274333,47.3311818 11.7274333,49.2448202 C11.7274333,51.1584585 13.284274,52.7152991 15.1979123,52.7152991 C17.1114346,52.7152991 18.6682752,51.1584585 18.6682752,49.2448202 C18.6682752,47.3311818 17.1115507,45.7743412 15.1979123,45.7743412 Z M15.1979123,50.9743722 C14.2442851,50.9743722 13.4684763,50.1984474 13.4684763,49.2449362 C13.4684763,48.291425 14.2444011,47.5155002 15.1979123,47.5155002 C16.1514235,47.5155002 16.9272323,48.291425 16.9272323,49.2449362 C16.9272323,50.1984474 16.1515396,50.9743722 15.1979123,50.9743722 Z" id="Shape"></path>
                            <path d="M40.9221705,46.5580426 L21.5024611,46.5580426 C21.021585,46.5580426 20.6319396,46.9476881 20.6319396,47.4285641 C20.6319396,47.9094402 21.021585,48.2990856 21.5024611,48.2990856 L40.9222865,48.2990856 C41.4031626,48.2990856 41.792808,47.9094402 41.792808,47.4285641 C41.792808,46.9476881 41.4030465,46.5580426 40.9221705,46.5580426 Z" id="Path"></path>
                            <path d="M36.716391,50.1906708 L21.5024611,50.1906708 C21.021585,50.1906708 20.6319396,50.5803162 20.6319396,51.0611923 C20.6319396,51.5420683 21.021585,51.9317137 21.5024611,51.9317137 L36.716391,51.9317137 C37.1972671,51.9317137 37.5869125,51.5420683 37.5869125,51.0611923 C37.5869125,50.5803162 37.197151,50.1906708 36.716391,50.1906708 Z" id="Path"></path>
                            <path d="M56.4896482,15.1676182 L53.1346584,15.1676182 C51.7797787,15.1676182 50.6240744,16.4439187 50.6243065,18.1371411 C50.6243065,19.3851207 50.6241905,27.4921132 50.6241905,29.4200281 C50.6241905,29.9009042 51.0138359,30.2905496 51.494712,30.2905496 C51.975588,30.2905496 52.3652334,29.9009042 52.3652334,29.4200281 L52.3652334,22.1979497 L57.258957,22.1979497 L57.258957,43.3172652 L52.3652334,43.3172652 L52.3652334,33.4824617 C52.3652334,33.0015856 51.975588,32.6119402 51.494712,32.6119402 C51.0138359,32.6119402 50.6241905,33.0015856 50.6241905,33.4824617 L50.6241905,44.1877867 C50.6241905,44.2945707 50.6471722,44.4210865 50.6958054,44.5334418 C50.6959214,44.5336739 50.6960375,44.5340221 50.6961536,44.5343704 L53.49459,50.9845864 C54.0315276,52.2228161 55.5932432,52.2211911 56.1294844,50.9848185 L58.9280369,44.5343704 C58.928269,44.53379 58.9283851,44.5332097 58.9287333,44.5325132 C58.9771343,44.420274 59,44.2948028 59,44.1877867 C59,43.2898728 59,18.692882 59,18.1371411 C59,16.4996321 57.8738934,15.1676182 56.4896482,15.1676182 L56.4896482,15.1676182 Z M52.3653495,20.4569067 L52.3653495,18.137025 C52.3653495,17.4429292 52.7562717,16.9086611 53.1346584,16.9086611 L56.4896482,16.9086611 C56.8535262,16.9086611 57.258957,17.4132154 57.258957,18.1371411 L57.258957,20.4569067 L52.3653495,20.4569067 Z M54.8120952,49.6467689 L52.8213867,45.0583082 L56.8029198,45.0583082 L54.8120952,49.6467689 Z" id="Shape"></path>
                        </g>
                    </g>
                </g>
            </g>
        </g>
    </g>
</svg>