<?xml version="1.0" encoding="UTF-8"?>
<svg width="197px" height="27px" viewBox="0 0 197 27" version="1.1" xmlns="http://www.w3.org/2000/svg" xmlns:xlink="http://www.w3.org/1999/xlink">
    <title>logo</title>
    <g id="Page-1" stroke="none" stroke-width="1" fill="none" fill-rule="evenodd">
        <g id="Home-07" transform="translate(-100.000000, -33.000000)" fill="#FFFFFF" fill-rule="nonzero">
            <g id="MAIN-NAVBAR" transform="translate(0.000000, 1.000000)">
                <g id="logo" transform="translate(100.000000, 32.000000)">
                    <path d="M45.6812319,15.620375 C45.8853059,17.8997129 47.7953626,19.6463984 50.0838179,19.6463984 C52.3722731,19.6463984 54.2823299,17.8997129 54.4864038,15.620375 L54.4864038,0 L60.6852449,0 L60.6852449,15.8493095 C60.6852449,21.6848641 55.9545932,26.4155158 50.1190386,26.4155158 C44.283484,26.4155158 39.5528323,21.6848641 39.5528323,15.8493095 L39.5528323,0 L45.6812319,0 L45.6812319,15.620375 Z" id="Path"></path>
                    <path d="M154.125729,15.620375 C154.329803,17.8997129 156.23986,19.6463984 158.528315,19.6463984 C160.81677,19.6463984 162.726827,17.8997129 162.930901,15.620375 L162.930901,0 L169.112132,0 L169.112132,15.8493095 C169.112132,21.6848641 164.38148,26.4155158 158.545926,26.4155158 C152.710371,26.4155158 147.979719,21.6848641 147.979719,15.8493095 L147.979719,0 L154.17856,0 L154.125729,15.620375 Z" id="Path"></path>
                    <path d="M26.1513606,0 L13.2429786,0 L13.2429786,25.147571 L19.4242093,25.147571 L19.4242093,16.6065542 L26.1513606,16.6065542 C30.722545,16.6065542 34.4282222,12.9008771 34.4282222,8.32969264 C34.4282222,3.7585082 30.722545,0.0528310315 26.1513606,0.0528310315 M25.2884538,11.1825683 L19.4242093,11.1825683 L19.4242093,5.4239859 L25.2884538,5.4239859 C26.8640535,5.4239859 28.1413295,6.70126186 28.1413295,8.2768616 C28.1413295,9.85246135 26.8640535,11.1297373 25.2884538,11.1297373" id="Shape"></path>
                    <path d="M196.496259,8.2768616 C196.496259,3.70567716 192.790539,0 188.219355,0 L175.310973,0 L175.310973,25.147571 L181.492204,25.147571 L181.492204,16.6065542 L185.243207,16.6065542 L189.628182,25.1827917 L196.496259,25.1827917 L191.213113,16.0606336 C194.405931,14.8272937 196.507209,11.7524245 196.496259,8.32969264 M181.492204,5.47681693 L187.356448,5.47681693 C188.932048,5.47681693 190.209324,6.75409296 190.209324,8.32969264 C190.209324,9.90529231 188.932048,11.1825683 187.356448,11.1825683 L181.492204,11.1825683 L181.492204,5.47681693 Z" id="Shape"></path>
                    <polygon id="Path" points="142.643785 0 120.701297 0 120.701297 5.4239859 128.590731 5.4239859 128.590731 25.147571 134.771961 25.147571 134.771961 5.4239859 142.643785 5.4239859"></polygon>
                    <rect id="Rectangle" x="0" y="0" width="6.18123069" height="6.18123069"></rect>
                    <polygon id="Path" points="83.1560436 0 83.1560436 14.9687923 74.0867165 0 67.3947859 0 67.3947859 25.1651813 73.5760166 25.1651813 73.5760166 10.1963891 82.662954 25.1651813 89.3372743 25.1651813 89.3372743 0"></polygon>
                    <polygon id="Path" points="111.491087 25.147571 118.359121 25.147571 109.148911 9.42153395 117.672318 0 110.804283 0 102.597863 9.08693742 102.597863 0 96.3990222 0 96.3990222 25.147571 102.597863 25.147571 102.597863 16.694606 104.99287 14.035444"></polygon>
                </g>
            </g>
        </g>
    </g>
</svg>