<?xml version="1.0" encoding="UTF-8"?>
<svg width="120px" height="89px" viewBox="0 0 120 89" version="1.1" xmlns="http://www.w3.org/2000/svg" xmlns:xlink="http://www.w3.org/1999/xlink">
    <title>mountain</title>
    <defs>
        <linearGradient x1="50%" y1="0%" x2="50%" y2="100%" id="linearGradient-1">
            <stop stop-color="#98BFDA" offset="0%"></stop>
            <stop stop-color="#1E274A" offset="100%"></stop>
        </linearGradient>
    </defs>
    <g id="Page-1" stroke="none" stroke-width="1" fill="none" fill-rule="evenodd">
        <g id="Home-07" transform="translate(-240.000000, -2032.000000)" fill="url(#linearGradient-1)" fill-rule="nonzero">
            <g id="GMBH-+-KOMPETENZEN" transform="translate(-402.666667, 799.000000)">
                <g id="Kompetenzen-Content" transform="translate(500.666667, 718.000000)">
                    <g id="ks---2" transform="translate(2.000000, 216.000000)">
                        <g id="mountain" transform="translate(140.000000, 299.000000)">
                            <path d="M112.96875,73.0947656 C112.96875,72.1239844 112.181719,71.3369531 111.210937,71.3369531 L110.816016,71.3369531 L106.465547,64.276875 C105.392109,62.535 103.220625,61.7875781 101.302969,62.4996094 L96.9550781,64.1132813 C96.8121094,64.1664844 96.6576562,64.1767969 96.5088281,64.1435156 L92.1632812,63.174375 C91.2944531,62.9810156 90.4010156,63.0583594 89.5790625,63.3989063 L84.5039062,65.50125 C83.3444531,65.9814844 82.4545312,66.9405469 82.0624219,68.1325781 C81.7129687,69.1938281 81.7933594,70.3396875 82.2714844,71.3369531 L80.3144531,71.3369531 C79.3436719,71.3369531 78.5566406,72.1239844 78.5566406,73.0947656 C78.5566406,74.0655469 79.3436719,74.8525781 80.3144531,74.8525781 L111.210937,74.8525781 C112.181719,74.8525781 112.96875,74.0655469 112.96875,73.0947656 L112.96875,73.0947656 Z M86.3496094,71.3369531 L85.4753906,69.8857031 C85.3129687,69.6159375 85.359375,69.3602344 85.4017969,69.2317969 C85.4439844,69.1033594 85.5583594,68.8699219 85.8494531,68.7494531 L90.9246094,66.6471094 C91.0753125,66.5847656 91.2391406,66.5704688 91.3982812,66.6060938 L95.7438281,67.5752344 C96.5564062,67.7561719 97.3982812,67.6989844 98.1782812,67.4092969 L102.525937,65.7958594 C102.878203,65.6655469 103.275937,65.8024219 103.472578,66.1216406 L106.686328,71.3371875 L86.3496094,71.3371875 L86.3496094,71.3369531 Z M118.242188,85.3994531 L104.923828,85.3994531 C103.953047,85.3994531 103.166016,86.1864844 103.166016,87.1572656 C103.166016,88.1280469 103.953047,88.9150781 104.923828,88.9150781 L118.242188,88.9150781 C119.212969,88.9150781 120,88.1280469 120,87.1572656 C120,86.1864844 119.212969,85.3994531 118.242188,85.3994531 Z M52.9115625,85.3994531 L51.8496094,85.3994531 L51.2784375,80.1121875 C51.1825781,79.2253125 50.7792187,78.3925781 50.1426562,77.7677344 L46.0340625,73.7346094 C44.8621875,72.5845313 43.0860937,72.3 41.6135156,73.0265625 L35.2692187,76.1575781 C34.6879687,76.4444531 34.1840625,76.876875 33.8121094,77.4082031 L32.58,79.1690625 C32.4771094,79.3160156 32.2809375,79.3621875 32.1234375,79.2761719 L30.005625,78.1202344 C28.8935156,77.5136719 27.5535937,77.49 26.4208594,78.0571875 C25.288125,78.6246094 24.5048437,79.7121094 24.3250781,80.9657813 L23.6894531,85.3992188 L22.0148437,85.3992188 C21.0440625,85.3992188 20.2570312,86.18625 20.2570312,87.1570313 C20.2570312,88.1278125 21.0440625,88.9148438 22.0148437,88.9148438 L52.9115625,88.9148438 C53.8823437,88.9148438 54.669375,88.1278125 54.669375,87.1570313 C54.669375,86.18625 53.8823437,85.3994531 52.9115625,85.3994531 L52.9115625,85.3994531 Z M27.2409375,85.3994531 L27.8050781,81.465 C27.8266406,81.3145313 27.920625,81.2383594 27.995625,81.2008594 C28.070625,81.1633594 28.1880469,81.1335938 28.3216406,81.2064844 L30.4394531,82.3624219 C32.17125,83.3074219 34.3296094,82.8011719 35.4604687,81.1849219 L36.6925781,79.4240625 C36.7265625,79.3757813 36.7722656,79.3364063 36.8252344,79.3103906 L43.1695312,76.179375 C43.303125,76.1132813 43.4648437,76.1390625 43.57125,76.2438281 L47.6798437,80.2769531 C47.7377344,80.3336719 47.7742969,80.409375 47.7829687,80.49 L48.3133594,85.3996875 L27.2409375,85.3996875 L27.2409375,85.3994531 Z M75.7914844,61.6628906 L69.16125,61.6628906 C68.1904687,61.6628906 67.4034375,62.4499219 67.4034375,63.4207031 C67.4034375,64.3914844 68.1904687,65.1785156 69.16125,65.1785156 L75.7914844,65.1785156 C76.7622656,65.1785156 77.5492969,64.3914844 77.5492969,63.4207031 C77.5492969,62.4499219 76.7625,61.6628906 75.7914844,61.6628906 Z M87.5810156,51.9635156 C88.5517969,51.9635156 89.3388281,51.1764844 89.3388281,50.2057031 C89.3388281,49.2349219 88.5517969,48.4478906 87.5810156,48.4478906 L74.3104687,48.4478906 L74.2567969,45.6227344 C74.2532812,45.4352344 74.3407031,45.2559375 74.4907031,45.1432031 L78.9166406,41.8183594 C80.1630469,40.8820313 80.7766406,39.2880469 80.4794531,37.7575781 L78.53625,27.7448438 L79.4678906,21.705 L87.9698437,30.5615625 L95.4360937,40.9560937 C96.005625,41.7492187 96.8782031,42.1839844 97.7936719,42.1839844 C98.1576563,42.1839844 98.5284375,42.1153125 98.8896094,41.9730469 C100.159219,41.4728906 100.895391,40.2276562 100.721484,38.8741406 L100.169531,34.5752344 L111.295547,48.4476563 L94.6122656,48.4476563 C93.6414844,48.4476563 92.8544531,49.2346875 92.8544531,50.2054688 C92.8544531,51.17625 93.6414844,51.9635156 94.6122656,51.9635156 L118.242188,51.9635156 C119.212969,51.9635156 120,51.17625 120,50.2054688 C120,49.2346875 119.212969,48.4476563 118.242188,48.4476563 L115.801875,48.4476563 L100.022344,28.7730469 C99.673125,28.3211719 98.76375,27.7174219 97.7369531,27.6766406 L90.0733594,27.6766406 L80.9430469,18.1654688 C80.390625,17.5996875 79.1711719,16.8771094 77.9840625,16.9042969 L72.7298438,16.9042969 C72.5709375,16.9042969 72.4169531,16.8386719 72.3070313,16.7240625 L57.3248438,1.11703125 C56.6432813,0.407109375 55.6882031,0 54.7040625,0 C54.103125,0.020859375 52.8330469,0.2803125 52.0832813,1.11703125 L42.1096875,11.5064063 L33.495,14.4292969 C32.1733594,14.8776563 31.0875,15.8650781 30.5160938,17.1389063 L26.0805469,27.0276563 C25.8663281,27.5053125 25.4289844,27.8357813 24.9110156,27.9114844 L17.7138281,28.9638281 C16.4158594,29.1536719 15.2819531,29.9057813 14.6022656,31.0277344 L4.05046875,48.4476563 L1.7578125,48.4476563 C0.78703125,48.4476563 0,49.2346875 0,50.2054688 C0,51.17625 0.78703125,51.9635156 1.7578125,51.9635156 L87.5810156,51.9635156 L87.5810156,51.9635156 Z M96.1905469,31.1922656 L96.9389062,37.0225781 L92.7510937,31.1922656 L96.1905469,31.1922656 Z M72.5716406,20.4119531 C72.624375,20.4140625 76.1085937,20.4201562 76.1085937,20.4201562 L75.0585937,27.2289844 C74.9985937,27.6173438 75.0060937,28.0096875 75.0810937,28.3947656 L77.0282812,38.4276563 C77.0707031,38.6463281 76.9830469,38.8739063 76.8049219,39.0077344 L72.3789844,42.3325781 C71.32875,43.1214844 70.7167969,44.3765625 70.7416406,45.6895313 L70.7939062,48.448125 L58.9760156,48.448125 L60.4942969,47.1239063 C61.2203906,46.490625 61.6446094,45.5751563 61.6586719,44.611875 L61.7444531,38.6948437 L67.5632812,34.7039062 C68.6050781,33.9895312 69.1621875,32.7660937 69.0171094,31.51125 L68.5185937,27.1952344 L72.5716406,20.4119531 Z M54.9075,3.67570312 L69.4345312,18.8083594 L65.5010156,25.3917188 C65.1049219,26.0371875 64.9347656,26.8071094 65.0217187,27.5589844 L65.5169531,31.8442969 L59.7063281,35.8296094 C58.798125,36.4525781 58.2461719,37.4819531 58.2304687,38.5830469 L58.1446875,44.5082813 L53.6278125,48.4476563 L32.1124219,48.4476563 L31.9265625,43.2370312 L36.9895312,41.3446875 C38.1225,40.9209375 38.8696875,39.8655469 38.8926562,38.6557031 L39.0285937,31.4467969 L46.8529687,27.4279687 C47.6622656,27.0121875 48.2500781,26.2729687 48.4736719,25.3933594 L54.9075,3.67570312 Z M17.6092969,32.8495313 C17.743125,32.6285156 17.9667187,32.4801563 18.2224219,32.4426563 L25.4198437,31.3903125 C27.1335937,31.1395313 28.5794531,30.0466406 29.2882031,28.4664844 L33.7235156,18.5779688 C33.89625,18.1928906 34.2246094,17.8942969 34.6242187,17.7588281 L43.6453125,14.6978906 C43.9122656,14.6074219 44.1534375,14.4539063 44.3486719,14.2507031 L49.7854687,8.58726563 L45.1092187,24.3710156 L37.1102344,28.4796094 C36.1492969,28.9729688 35.5399219,29.9505469 35.5195312,31.0305469 L35.3845312,38.1914063 L30.2995312,40.0919531 C29.116875,40.5339844 28.3525781,41.6789063 28.3975781,42.9407813 L28.5942187,48.4478906 L8.1609375,48.4478906 L17.6092969,32.8495313 Z M28.3305469,63.4207031 C28.3305469,62.4499219 27.5435156,61.6628906 26.5727344,61.6628906 L5.88,61.6628906 C4.90921875,61.6628906 4.1221875,62.4499219 4.1221875,63.4207031 C4.1221875,64.3914844 4.90921875,65.1785156 5.88,65.1785156 L26.5727344,65.1785156 C27.54375,65.1785156 28.3305469,64.3914844 28.3305469,63.4207031 Z M34.005,61.6628906 C33.0342187,61.6628906 32.2471875,62.4499219 32.2471875,63.4207031 C32.2471875,64.3914844 33.0342187,65.1785156 34.005,65.1785156 L37.1196094,65.1785156 C38.0903906,65.1785156 38.8774219,64.3914844 38.8774219,63.4207031 C38.8774219,62.4499219 38.0903906,61.6628906 37.1196094,61.6628906 L34.005,61.6628906 Z" id="Shape"></path>
                        </g>
                    </g>
                </g>
            </g>
        </g>
    </g>
</svg>