<?xml version="1.0" encoding="UTF-8"?>
<svg width="120px" height="81px" viewBox="0 0 120 81" version="1.1" xmlns="http://www.w3.org/2000/svg" xmlns:xlink="http://www.w3.org/1999/xlink">
    <title>mountains (1)</title>
    <defs>
        <linearGradient x1="50%" y1="0%" x2="50%" y2="100%" id="linearGradient-1">
            <stop stop-color="#98BFDA" offset="0%"></stop>
            <stop stop-color="#1E274A" offset="100%"></stop>
        </linearGradient>
    </defs>
    <g id="Page-1" stroke="none" stroke-width="1" fill="none" fill-rule="evenodd">
        <g id="Home-07" transform="translate(-1082.000000, -2041.000000)" fill="url(#linearGradient-1)" fill-rule="nonzero">
            <g id="GMBH-+-KOMPETENZEN" transform="translate(-402.666667, 799.000000)">
                <g id="Kompetenzen-Content" transform="translate(502.666667, 718.000000)">
                    <g id="ks---3" transform="translate(842.000000, 216.000000)">
                        <g id="mountains-(1)" transform="translate(140.000000, 308.000000)">
                            <path d="M43.4632119,34.1408566 C44.1494555,33.4543785 45.2624921,33.4543785 45.9489702,34.1408566 C46.6354482,34.8271002 46.6354482,35.9401368 45.9489702,36.6266149 L45.9489702,36.6266149 L28.6684266,53.9071584 L34.9407125,60.1792098 C35.270475,60.508738 35.4556296,60.9559214 35.4556296,61.422089 L35.4556296,61.422089 L35.4556296,69.1758455 C36.8079608,68.7392089 38.1403704,68.3016348 39.4549676,67.8659357 L39.4549676,67.8659357 L39.4549676,59.5433563 C39.4549676,59.0771888 39.6401222,58.6300054 39.9698848,58.3004772 L39.9698848,58.3004772 L45.6060827,52.6642792 C46.2923264,51.9778012 47.405363,51.9778012 48.091841,52.6642792 L48.091841,52.6642792 L50.7838474,55.3562856 C50.7943942,55.3140985 50.8037691,55.271677 50.8175971,55.230193 L50.8175971,55.230193 L56.453795,38.3213648 C56.6930897,37.6037152 57.3648022,37.1195009 58.1213578,37.1195009 C58.8779133,37.1195009 59.5496258,37.6034808 59.7889205,38.3213648 L59.7889205,38.3213648 L64.3837999,52.1060032 L67.7261909,42.0788301 C67.9654856,41.3611805 68.6371981,40.8769662 69.3937536,40.8769662 C70.1503092,40.8769662 70.8220217,41.3609461 71.0613164,42.0788301 L71.0613164,42.0788301 L72.5104436,46.4259775 L83.1809701,35.755451 C83.8672137,35.068973 84.9802503,35.068973 85.6667284,35.755451 L85.6667284,35.755451 L96.9393586,47.0280813 C97.2691212,47.3576095 97.4542757,47.8047929 97.4542757,48.2709604 L97.4542757,48.2709604 L97.4542757,50.6228918 L100.357686,48.6872066 C100.948072,48.2934602 101.717049,48.2934602 102.307668,48.6872066 L102.307668,48.6872066 L106.664425,51.5917892 L110.959307,40.1389262 C111.216414,39.4526825 111.872424,38.9982336 112.605073,38.9982336 C113.337723,38.9982336 113.993498,39.4529169 114.250839,40.1389262 L114.250839,40.1389262 L119.887037,55.1690217 C120.089535,55.7087824 120.014302,56.3134643 119.685945,56.7873662 C119.357355,57.261268 118.817594,57.5439217 118.241037,57.5439217 L118.241037,57.5439217 L114.362635,57.5439217 L114.362635,61.9838807 C117.188937,62.8290291 118.751735,63.4862106 118.933609,63.5642567 C119.825866,63.9467532 120.2393,64.9798686 119.858209,65.8718916 C119.475713,66.764149 118.442832,67.1775827 117.550106,66.7950862 C117.422841,66.7407117 104.406946,61.3009182 82.5460541,61.3009182 C78.7199175,61.3009182 74.9458117,61.6801335 71.1524874,62.3384868 L71.1524874,62.3384868 L71.1524874,67.0582869 C71.1524874,68.0290592 70.3654634,68.8160832 69.3946911,68.8160832 C68.4239189,68.8160832 67.6368949,68.0290592 67.6368949,67.0582869 L67.6368949,67.0582869 L67.6368949,63.0237929 C60.2970408,64.6055752 52.80461,67.1117239 44.6500759,69.8398237 C32.4228451,73.9305672 18.5643793,78.5669306 2.4528875,80.6699581 C2.37554447,80.6800361 2.29890455,80.684958 2.22320212,80.684958 C1.35344453,80.684958 0.59782651,80.0399639 0.482280702,79.1545033 C0.356656862,78.1916997 1.03516622,77.3095204 1.99773546,77.1838965 C5.83769999,76.6825731 9.55321255,76.0312509 13.1527106,75.2753985 L13.1527106,75.2753985 L13.1527106,70.6950502 L9.27430888,70.6950502 C8.6977517,70.6950502 8.15775669,70.4123966 7.82940035,69.9384947 C7.50104401,69.4645928 7.42581033,68.8599109 7.62830846,68.3201503 L7.62830846,68.3201503 L13.2645064,53.2900547 C13.5216134,52.6038111 14.177623,52.1493621 14.9102725,52.1493621 C15.6429219,52.1493621 16.2986971,52.6040454 16.5560385,53.2900547 L16.5560385,53.2900547 L17.6470441,56.1995591 L23.0610566,50.7855466 C23.3905848,50.455784 23.8377681,50.2706295 24.3039357,50.2706295 C24.7701033,50.2706295 25.2170523,50.455784 25.5468148,50.7855466 L25.5468148,50.7855466 L26.1826683,51.4214001 Z M24.3029982,54.5144184 L19.0019534,59.8154632 L22.191299,68.3203847 C22.3937971,68.8601453 22.3185634,69.4648272 21.9902071,69.9387291 C21.6616164,70.412631 21.1218557,70.6952846 20.5452985,70.6952846 L20.5452985,70.6952846 L16.6668969,70.6952846 L16.6668969,74.496812 C22.0131756,73.2520579 27.0962537,71.799415 31.9390996,70.2914602 L31.9390996,70.2914602 L31.9390996,62.1505198 L24.3029982,54.5144184 Z M26.1817309,63.4219924 C27.1525031,63.4219924 27.9395271,64.2090164 27.9395271,65.1797887 L27.9395271,65.1797887 L27.9395271,67.0585213 C27.9395271,68.0292936 27.1525031,68.8163176 26.1817309,68.8163176 C25.2109586,68.8163176 24.4239346,68.0292936 24.4239346,67.0585213 L24.4239346,67.0585213 L24.4239346,65.1797887 C24.4239346,64.2090164 25.2109586,63.4219924 26.1817309,63.4219924 Z M14.9091006,58.9135965 L11.8092855,67.1796921 L18.0089157,67.1796921 L14.9091006,58.9135965 Z M46.8480244,56.3931511 L42.9696227,60.2715527 L42.9696227,66.6945403 L42.9696227,66.6945403 L43.533055,66.5061045 C45.9531889,65.6965808 48.348948,64.8954944 50.726426,64.1253453 L50.726426,64.1253453 L50.726426,60.2715527 L46.8480244,56.3931511 Z M56.3628584,57.5439217 L52.9705459,57.5439217 L53.7273358,58.3007116 C54.0570984,58.6302398 54.242253,59.0774231 54.242253,59.5435907 L54.242253,59.5435907 L54.242253,63.0092618 C54.9502933,62.7894201 55.6571618,62.5735627 56.3628584,62.3621584 L56.3628584,62.3621584 L56.3628584,57.5439217 Z M62.5706917,57.5436873 L59.8784509,57.5436873 L59.8784509,61.3463866 C60.7238337,61.1120137 61.5678103,60.8860783 62.410615,60.6690491 C62.3836621,60.63694 62.3557718,60.6057684 62.3309283,60.5713156 C62.0004626,60.1131167 61.9106978,59.5239034 62.0892899,58.9876583 L62.0892899,58.9876583 L62.5706917,57.5436873 Z M110.847043,57.5436873 L108.726437,57.5436873 L108.726437,60.5192848 C109.472212,60.6870958 110.179549,60.8556098 110.847043,61.0224833 L110.847043,61.0224833 L110.847043,57.5436873 Z M101.332209,52.2623298 L97.4535726,54.847931 L97.4535726,58.6264898 C100.305421,58.9571899 102.896413,59.361483 105.21061,59.7953071 L105.21061,59.7953071 L105.21061,54.847931 L101.332209,52.2623298 Z M84.4231461,39.4840885 L74.9083121,48.9989225 L74.9083121,53.6219267 L76.3979858,58.0907135 C78.4424201,57.8933716 80.4899012,57.7857944 82.5444134,57.7855601 C86.661641,57.7855601 90.464809,57.9695427 93.9379801,58.2707118 L93.9379801,58.2707118 L93.9379801,48.9989225 L84.4231461,39.4840885 Z M69.3932849,48.193383 L66.1959707,57.7857944 L72.5908335,57.7857944 L69.3932849,48.193383 Z M80.6656808,0 C82.6407407,0 84.4976767,0.769211646 85.89407,2.16583937 L85.89407,2.16583937 L119.484385,35.7556854 C120.170863,36.4419291 120.170863,37.5549657 119.484385,38.2414437 C119.141263,38.5847999 118.691267,38.7563608 118.241506,38.7563608 C117.791744,38.7563608 117.341748,38.5845655 116.998626,38.2414437 L116.998626,38.2414437 L102.330871,23.5736885 L101.534004,24.3705562 C99.4117577,26.4930366 95.9753832,26.5206926 93.8186843,24.4535242 L93.8186843,24.4535242 L90.496215,27.7757591 C89.4209124,28.8510617 88.0085817,29.3884786 86.596251,29.3884786 C85.1839203,29.3884786 83.7713552,28.8510617 82.696287,27.7757591 L82.696287,27.7757591 L75.3205739,20.4002803 C74.6301115,21.0012123 73.5819962,20.9733219 72.9248148,20.3161405 C72.2383368,19.6298968 72.2383368,18.5168602 72.9248148,17.8303822 C73.5655901,17.1896069 74.4175354,16.8366414 75.3236208,16.8366414 C76.2294718,16.8366414 77.081417,17.1896069 77.7221924,17.8303822 L77.7221924,17.8303822 L85.1820453,25.2902352 C85.9618038,26.0699936 87.2304639,26.070228 88.0102223,25.2902352 L88.0102223,25.2902352 L91.4189409,21.8815167 C92.7417411,20.5587164 94.8937525,20.5587164 96.2163184,21.8815167 L96.2163184,21.8815167 L96.2266308,21.8918291 C97.006858,22.6645563 98.270362,22.6622126 99.0477767,21.8847979 L99.0477767,21.8847979 L99.8446443,21.0879302 L83.4085461,4.65183204 C82.6758966,3.91941693 81.7018431,3.5158269 80.6659152,3.5158269 C79.6299872,3.5158269 78.6559337,3.91941693 77.9235186,4.65183204 L77.9235186,4.65183204 L58.7279147,23.847436 L61.4037493,26.5232707 C62.1835077,27.3030291 63.4521679,27.3032635 64.2319263,26.5232707 L64.2319263,26.5232707 L67.680957,23.07424 C68.3672006,22.387762 69.4802372,22.387762 70.1667153,23.07424 C70.8531933,23.7604837 70.8531933,24.8735203 70.1667153,25.5599983 L70.1667153,25.5599983 L66.7176846,29.009029 C65.642382,30.0843315 64.2300513,30.6217484 62.8177206,30.6217484 C61.4053899,30.6217484 59.9928248,30.0843315 58.9177566,29.009029 L58.9177566,29.009029 L56.241922,26.3331943 L51.0559543,31.519162 C50.3697106,32.2056401 49.256674,32.2056401 48.570196,31.519162 C47.8837179,30.8329184 47.8837179,29.7198818 48.570196,29.0334037 L48.570196,29.0334037 L49.3724542,28.2311455 L46.0945157,24.953207 C46.0856095,24.9445353 46.058891,24.9178167 46.0089696,24.9178167 C45.9588138,24.9178167 45.9323297,24.9445353 45.9234235,24.953207 L45.9234235,24.953207 L42.5526734,28.3239572 C41.1344834,29.7416784 38.8275516,29.7416784 37.4098303,28.3239572 L37.4098303,28.3239572 L33.6183809,24.5325078 L3.00061682,55.1502719 C2.65749499,55.4936281 2.20749914,55.665189 1.75773767,55.665189 C1.3079762,55.665189 0.857980357,55.4933937 0.514858526,55.1502719 C-0.171619509,54.4640282 -0.171619509,53.3509917 0.514858526,52.6645136 L0.514858526,52.6645136 L43.4983678,9.68076997 C44.8947612,8.28414224 46.7516971,7.51516497 48.726757,7.51516497 C50.7018169,7.51516497 52.5587529,8.28414224 53.9551462,9.68076997 L53.9551462,9.68076997 L60.9387536,16.6643773 L75.4372916,2.16583937 C76.8339193,0.769211646 78.6906209,0 80.6656808,0 Z M58.1206546,44.4359177 L54.9233404,54.0283291 L61.3182032,54.0283291 L58.1206546,44.4359177 Z M112.604839,45.7622336 L109.505024,54.0283291 L115.704654,54.0283291 L112.604839,45.7622336 Z M80.6656808,48.3921312 C81.6364531,48.3921312 82.4234771,49.1789208 82.4234771,50.1499275 L82.4234771,50.1499275 L82.4234771,52.0286601 C82.4234771,52.9994324 81.6364531,53.7864564 80.6656808,53.7864564 C79.6949085,53.7864564 78.9078845,52.9994324 78.9078845,52.0286601 L78.9078845,52.0286601 L78.9078845,50.1499275 C78.9078845,49.1791552 79.6949085,48.3921312 80.6656808,48.3921312 Z M88.1808458,48.3921312 C89.1516181,48.3921312 89.938642,49.1789208 89.938642,50.1499275 L89.938642,50.1499275 L89.938642,52.0286601 C89.938642,52.9994324 89.1516181,53.7864564 88.1808458,53.7864564 C87.2100735,53.7864564 86.4230495,52.9994324 86.4230495,52.0286601 L86.4230495,52.0286601 L86.4230495,50.1499275 C86.4230495,49.1791552 87.2100735,48.3921312 88.1808458,48.3921312 Z M51.4693879,12.1667626 C49.9572144,10.6545891 47.496534,10.6545891 45.9843605,12.1667626 L45.9843605,12.1667626 L36.1043736,22.0465151 L39.895823,25.8379645 C39.9429319,25.8853078 40.0195718,25.8850734 40.0669151,25.8379645 L40.0669151,25.8379645 L43.4374309,22.4674488 C44.1241433,21.780502 45.0374942,21.4022242 46.0089696,21.4022242 C46.980445,21.4022242 47.8935616,21.780502 48.5805084,22.4674488 L48.5805084,22.4674488 L51.8582125,25.7451529 L58.4529953,19.15037 Z" id="Combined-Shape"></path>
                        </g>
                    </g>
                </g>
            </g>
        </g>
    </g>
</svg>