<?xml version="1.0" encoding="UTF-8"?>
<svg width="120px" height="100px" viewBox="0 0 120 100" version="1.1" xmlns="http://www.w3.org/2000/svg" xmlns:xlink="http://www.w3.org/1999/xlink">
    <title>mountains</title>
    <defs>
        <linearGradient x1="50%" y1="0%" x2="50%" y2="100%" id="linearGradient-1">
            <stop stop-color="#84A6C3" offset="0%"></stop>
            <stop stop-color="#242E51" offset="100%"></stop>
        </linearGradient>
    </defs>
    <g id="Page-1" stroke="none" stroke-width="1" fill="none" fill-rule="evenodd">
        <g id="Home-07" transform="translate(-660.000000, -1812.000000)" fill="url(#linearGradient-1)" fill-rule="nonzero">
            <g id="GMBH-+-KOMPETENZEN" transform="translate(-402.666667, 799.000000)">
                <g id="Kompetenzen-Content" transform="translate(502.666667, 718.000000)">
                    <g id="ks---1-hovered" transform="translate(420.000000, 216.000000)">
                        <g id="mountains" transform="translate(140.000000, 79.000000)">
                            <path d="M61.4048157,0 C64.4050879,0 67.1732369,1.43344007 68.9078596,3.81559218 C69.7092626,3.53515364 70.5550421,3.38994529 71.4065985,3.38994529 C75.5968965,3.38994529 79.0057477,6.79879655 79.0057477,10.9890945 C79.0057477,11.340693 78.9763384,11.700169 78.9135811,12.1210894 C78.8082854,12.8287504 78.2009311,13.3523407 77.4853927,13.3523407 L77.4853927,13.3523407 L68.2687328,13.3523407 L73.1454225,19.2084646 L75.2164138,17.8278037 C75.5435921,17.6095973 75.9448188,17.5344986 76.3292402,17.6193129 C76.7131364,17.7041271 77.0458289,17.9420273 77.2506436,18.2776082 L77.2506436,18.2776082 L89.8716909,38.9762308 L92.0600568,38.6115031 C92.6188332,38.5182862 93.1778722,38.7593373 93.4942846,39.2275226 L93.4942846,39.2275226 L106.419403,58.3564246 L117.891125,52.4081341 C118.599574,52.0407806 119.471349,52.317543 119.838177,53.0254665 C120.205268,53.7336526 119.928768,54.6051653 119.221107,54.9725187 L119.221107,54.9725187 L90.8621536,69.6771614 C90.47852,69.8761992 90.0258271,69.8930045 89.6282765,69.7225882 L89.6282765,69.7225882 L86.5408267,68.399433 L63.9526576,78.7522891 L84.0922412,97.2215829 C84.6799017,97.7606656 84.7195517,98.6741915 84.180469,99.2621146 C83.8955666,99.5727502 83.5061561,99.7302999 83.1154328,99.7302999 C82.7669852,99.7302999 82.4172248,99.6047853 82.1396747,99.3503425 L82.1396747,99.3503425 L47.2783806,67.3800861 L44.3792027,68.2082726 C43.8579757,68.3576823 43.2952605,68.2011829 42.9250186,67.8033698 L42.9250186,67.8033698 L22.6888045,46.0491639 L18.9509369,48.1256695 C18.4026638,48.4307908 17.7196856,48.3462391 17.2617411,47.9169161 L17.2617411,47.9169161 L0.456435193,32.1619419 C-0.125448522,31.6165572 -0.154857808,30.7025061 0.390526884,30.1206224 C0.936436742,29.5384761 1.84996267,29.5093294 2.43184638,30.054714 L2.43184638,30.054714 L18.4683095,45.0888982 L22.2741861,42.9745807 C22.8547569,42.6521289 23.5805361,42.7671402 24.0329664,43.2534437 L24.0329664,43.2534437 L26.6451411,46.0617679 L37.0547152,32.3360343 C37.5158108,31.7276297 38.3710433,31.5834717 39.0064939,32.0070179 L39.0064939,32.0070179 L41.0457128,33.3664096 L56.7555228,13.3523407 L45.323976,13.3523407 C44.6087002,13.3523407 44.0010834,12.8287504 43.8957876,12.1210894 C43.8327677,11.700169 43.803621,11.340693 43.803621,10.9890945 C43.803621,6.79879655 47.2116845,3.38994529 51.400407,3.38994529 C52.2524885,3.38994529 53.0980055,3.53515364 53.8994085,3.81559218 C55.6340312,1.43344007 58.4029679,0 61.4048157,0 Z M17.8215678,70.4433783 C18.2498405,69.7703783 19.142885,69.5721282 19.8153598,70.0004009 L19.8153598,70.0004009 L40.1952067,82.9725216 L44.7896198,81.0512024 C45.176667,80.8891888 45.6157056,80.9036309 45.9917244,81.0913776 L45.9917244,81.0913776 L59.4795578,87.8240033 C60.1929956,88.1803283 60.4828871,89.0476396 60.1268247,89.7610774 C59.8739573,90.2675998 59.3637587,90.5606423 58.8336039,90.5606423 C58.6167104,90.5606423 58.3966659,90.5118019 58.1897506,90.4083442 L58.1897506,90.4083442 L45.293779,83.9711243 L40.6135013,85.9284173 C40.1776137,86.1109124 39.6797565,86.068374 39.2808931,85.8144563 L39.2808931,85.8144563 L18.2645452,72.4371703 C17.5915452,72.0088976 17.3932951,71.1163783 17.8215678,70.4433783 Z M62.4076198,10.8286564 L43.4134228,35.0269839 L50.0874925,39.9212667 C50.7308206,40.3931281 50.869727,41.2969385 50.3981281,41.940004 C50.1150637,42.3257383 49.6765502,42.5302904 49.23226,42.5302904 C48.9358039,42.5302904 48.6367219,42.4394367 48.3793907,42.2506396 L48.3793907,42.2506396 L38.5346325,35.1640522 L28.6420841,48.2083831 L44.4364458,65.1875189 L47.2615753,64.380339 C47.7436775,64.242483 48.2643794,64.3651092 48.6346213,64.7046289 L48.6346213,64.7046289 L61.6421906,76.6332451 L85.9190304,65.5062945 C86.2903227,65.3364034 86.7151818,65.3311517 87.0898876,65.4918525 L87.0898876,65.4918525 L90.1382125,66.798465 L103.837425,59.6945471 L91.6197053,41.6125632 L89.3835493,41.9851683 C88.8016656,42.0825866 88.2200444,41.8158023 87.9128224,41.3124309 L87.9128224,41.3124309 L75.5664369,21.0646632 L65.9341082,29.0479712 C65.6607594,29.284821 65.3238655,29.4008826 64.9885471,29.4008826 C64.584432,29.4008826 64.1824176,29.2320418 63.8967274,28.9025003 C63.37445,28.2998725 63.4395706,27.3876595 64.0421984,26.8653821 L64.0421984,26.8653821 L70.8496601,20.9656694 L62.4076198,10.8286564 Z M65.593013,50.0209929 C66.0759029,49.6189785 66.7630824,49.5748646 67.2932373,49.912021 L67.2932373,49.912021 L75.7906827,55.3196533 L80.1007184,51.7277818 C80.7138495,51.2173206 81.624487,51.3000342 82.1352108,51.9126402 C82.6456719,52.5252461 82.5629583,53.4358836 81.9503524,53.9466073 L81.9503524,53.9466073 L76.8299858,58.2135795 C76.3470958,58.6155939 75.6601789,58.6597079 75.1297615,58.3225514 L75.1297615,58.3225514 L66.6323161,52.9149191 L57.2019137,60.7737628 C56.9317159,60.9987964 56.6037498,61.108556 56.2778845,61.108556 C55.8637912,61.108556 55.4531116,60.9315752 55.1674214,60.5889045 C54.6569602,59.9762986 54.7396738,59.065661 55.3522797,58.5549373 L55.3522797,58.5549373 Z M96.5688679,21.5535925 C98.3476045,21.5535925 100.011855,22.2089995 101.293259,23.3853709 C102.041883,23.039024 102.862455,22.8549534 103.692479,22.8549534 C106.845575,22.8549534 109.41101,25.4201258 109.41101,28.5734839 C109.41101,29.3712107 108.764268,30.0176899 107.966804,30.0176899 L107.966804,30.0176899 L90.9929199,30.0176899 C90.1954556,30.0176899 89.5487139,29.3709482 89.5489764,28.5734839 C89.5489764,24.7027493 92.6981333,21.5535925 96.5688679,21.5535925 Z M96.5688679,24.4417419 C94.7982713,24.4417419 93.2844809,25.5611328 92.6978707,27.1290153 L92.6978707,27.1290153 L106.125835,27.1290153 C105.631654,26.2997785 104.726006,25.7431028 103.692479,25.7431028 C103.046,25.7431028 102.436283,25.9573704 101.928973,26.3627984 C101.623589,26.6067379 101.233391,26.7167602 100.84503,26.6673946 C100.457196,26.618029 100.106385,26.4137395 99.8716356,26.1012658 C99.0807359,25.0467329 97.8767933,24.4417419 96.5688679,24.4417419 Z M20.5511171,14.4341822 C22.3844709,14.4341822 24.1135794,15.2179922 25.3240865,16.5442985 C25.9821193,16.278302 26.6861041,16.1409711 27.4105703,16.1409711 C30.5009085,16.1409711 33.0151398,18.6552024 33.0151398,21.7455406 C33.0151398,22.1688243 32.963411,22.603399 32.8610036,23.0371859 C32.7071301,23.6891793 32.1249838,24.1497497 31.4551348,24.1497497 L31.4551348,24.1497497 L12.6678532,24.1497497 C11.9047872,24.1497497 11.2732753,23.5557872 11.2265356,22.7940342 L11.2265356,22.7940342 L11.2236472,22.7530712 C11.2178704,22.6666815 11.2128813,22.5802917 11.2128813,22.4923264 C11.2128813,20.231225 12.7697353,18.311744 14.8921929,17.782902 C16.0157852,15.7499852 18.1931226,14.4341822 20.5511171,14.4341822 Z M20.5511171,17.3228568 C19.0861671,17.3228568 17.7480446,18.2413718 17.220253,19.608641 C17.0164886,20.1374829 16.5217824,20.4980092 15.9559163,20.5305695 C15.380072,20.563655 14.8735495,20.842518 14.5358679,21.2618629 L14.5358679,21.2618629 L30.0834017,21.2618629 C29.854692,19.9943752 28.742916,19.0299082 27.4105703,19.0299082 C26.8215969,19.0299082 26.2588817,19.2192305 25.7828189,19.5776562 C25.4506515,19.8273725 25.0271053,19.9221649 24.6203644,19.8376132 C24.2136234,19.7530615 23.8628127,19.4973058 23.657998,19.1359917 C23.0238603,18.0176511 21.8333094,17.3228568 20.5511171,17.3228568 Z M61.4048157,2.88841195 C59.0187248,2.88841195 56.8450635,4.20421488 55.7327623,6.32220858 C55.5502672,6.66960577 55.23438,6.92798734 54.8573109,7.03748441 C54.4810296,7.14698149 54.0753391,7.09840365 53.7350316,6.90304197 C53.0131912,6.48868614 52.2275432,6.27835724 51.400407,6.27835724 C48.9817559,6.27835724 46.9832374,8.11276141 46.7211797,10.4639287 L46.7211797,10.4639287 L59.0229261,10.4639287 L61.2391259,7.64063735 C61.5082733,7.29744149 61.9181652,7.0944649 62.3543154,7.08816292 C62.7980806,7.08737517 63.2058718,7.27302128 63.4849974,7.60807707 L63.4849974,7.60807707 L65.8632108,10.4639287 L76.0884517,10.4639287 C75.8263939,8.11276141 73.8265625,6.27835724 71.4065985,6.27835724 C70.5791998,6.27835724 69.7938143,6.48842356 69.0719739,6.90304197 C68.7316664,7.09866623 68.326501,7.14724407 67.9496945,7.03748441 C67.5726255,6.92798734 67.2567383,6.66960577 67.0742431,6.32220858 C65.9616794,4.20421488 63.789331,2.88841195 61.4048157,2.88841195 Z" id="Combined-Shape"></path>
                        </g>
                    </g>
                </g>
            </g>
        </g>
    </g>
</svg>